<?xml version="1.0" encoding="UTF-8"?>
<svg xmlns="http://www.w3.org/2000/svg" xmlns:xlink="http://www.w3.org/1999/xlink" id="Layer_1" viewBox="0 0 200 200">
  <defs>
    <style>
      .cls-1, .cls-2 {
        fill: none;
      }

      .cls-3 {
        fill: #c7e6ff;
      }

      .cls-4 {
        fill: #001f65;
      }

      .cls-2 {
        stroke: #001f65;
        stroke-width: 6.55px;
      }

      .cls-5 {
        clip-path: url(#clippath);
      }
    </style>
    <clipPath id="clippath">
      <rect class="cls-1" x="5" y="5" width="190" height="190"></rect>
    </clipPath>
  </defs>
  <g class="cls-5">
    <path class="cls-3" d="M100,191.73c50.58,0,91.73-41.15,91.73-91.73S150.58,8.27,100,8.27,8.27,49.42,8.27,100s41.15,91.73,91.73,91.73"></path>
    <path class="cls-2" d="M100,191.73c50.58,0,91.73-41.15,91.73-91.73S150.58,8.27,100,8.27,8.27,49.42,8.27,100s41.15,91.73,91.73,91.73Z"></path>
    <path class="cls-4" d="M158.48,111.85c0,3.72-1.34,6.94-4.01,9.65-2.67,2.72-5.83,4.08-9.48,4.08h-58.39c-4.92,0-9.14-1.79-12.65-5.36-3.51-3.57-5.27-7.86-5.27-12.87,0-1.84.32-3.55.8-5.21.81-2.85,2.25-5.46,4.48-7.77.09-.1.2-.16.3-.26,1.72-1.72,3.61-3.03,5.67-3.9.07-.03.14-.04.21-.07.96-.39,1.95-.71,2.98-.91,1.12-.22,2.28-.33,3.49-.33h3.16c1.54-5.29,4.5-9.66,8.85-13.09,4.36-3.43,9.35-5.15,14.97-5.15,6.88,0,12.72,2.43,17.5,7.29,4.77,4.87,7.17,10.8,7.17,17.81v2.36h6.75c3.65,0,6.81,1.36,9.48,4.08,2.67,2.72,4.01,5.94,4.01,9.65M64.01,77.67c0,2.17-.81,4.08-2.44,5.73-1.63,1.66-3.51,2.48-5.63,2.48s-3.98-.83-5.54-2.48c-1.56-1.66-2.35-3.56-2.35-5.73s.78-4.04,2.35-5.64,3.41-2.39,5.54-2.39,4,.8,5.63,2.39c1.63,1.59,2.44,3.47,2.44,5.64M64.01,118.57c0,2.17-.81,4.05-2.44,5.64-1.63,1.59-3.51,2.39-5.63,2.39s-3.98-.8-5.54-2.39c-1.56-1.59-2.35-3.47-2.35-5.64s.78-4.07,2.35-5.73c1.56-1.65,3.41-2.48,5.54-2.48s4,.83,5.63,2.48c1.63,1.66,2.44,3.57,2.44,5.73M167.55,111.85c0-6.01-2.04-11.19-6.11-15.56-4.08-4.36-9-6.76-14.76-7.19-1.55-8.01-5.41-14.62-11.6-19.85-6.19-5.22-13.35-7.83-21.5-7.83H43.92c-1.13,0-2.07.38-2.81,1.15-.75.77-1.13,1.72-1.13,2.87v24.46c0,1.15.38,2.14,1.13,2.96.75.83,1.69,1.24,2.81,1.24h19.11c-1.4,2.51-2.43,5.17-2.94,8.02h-16.16c-1.13,0-2.07.42-2.81,1.24-.75.83-1.13,1.82-1.13,2.96v24.46c0,1.15.38,2.1,1.13,2.87.75.77,1.69,1.15,2.81,1.15h101.07c6.18,0,11.49-2.25,15.92-6.76,4.43-4.51,6.64-9.9,6.64-16.2"></path>
  </g>
</svg>
