<?xml version="1.0" encoding="UTF-8"?>
<svg xmlns="http://www.w3.org/2000/svg" xmlns:xlink="http://www.w3.org/1999/xlink" id="Layer_1" viewBox="0 0 200 200">
  <defs>
    <style>
      .cls-1, .cls-2 {
        fill: none;
      }

      .cls-3 {
        fill: #c7e6ff;
      }

      .cls-4 {
        fill: #001f65;
      }

      .cls-2 {
        stroke: #001f65;
        stroke-width: 6.55px;
      }

      .cls-5 {
        clip-path: url(#clippath);
      }
    </style>
    <clipPath id="clippath">
      <rect class="cls-1" x="5" y="5" width="190" height="190"></rect>
    </clipPath>
  </defs>
  <g class="cls-5">
    <path class="cls-3" d="M100,191.73c50.58,0,91.73-41.15,91.73-91.73S150.58,8.27,100,8.27,8.27,49.42,8.27,100s41.15,91.73,91.73,91.73"></path>
    <path class="cls-2" d="M100,191.73c50.58,0,91.73-41.15,91.73-91.73S150.58,8.27,100,8.27,8.27,49.42,8.27,100s41.15,91.73,91.73,91.73Z"></path>
    <path class="cls-4" d="M132.95,137.77c-4.63,0-8.57-2.08-11.12-5.79.23-3.48,7.42-5.33,11.12-5.33,3.48,0,10.66,1.85,10.89,5.33-2.32,3.71-6.26,5.79-10.89,5.79M132.95,111.35c3.01,0,5.56,2.55,5.56,5.56s-2.55,5.56-5.56,5.56-5.56-2.55-5.56-5.56,2.32-5.56,5.56-5.56M132.95,104.4c-10.89,0-19.93,9.04-19.93,19.93s9.04,19.7,19.93,19.7,19.7-8.81,19.7-19.7-8.81-19.93-19.7-19.93M132.95,94.67c1.62,0,3.24.23,4.87.46v-17.38c0-3.94-2.32-7.65-6.02-9.04l-27.11-12.05c-2.55-.93-5.33-.93-7.88,0l-27.11,12.05c-3.71,1.39-6.02,5.1-6.02,9.04v17.84c0,22.25,15.76,43.33,37.08,48.43,2.78-.69,5.33-1.62,7.88-2.78-3.48-4.87-5.33-10.66-5.33-16.92,0-16.45,13.21-29.66,29.66-29.66"></path>
  </g>
</svg>
