<?xml version="1.0" encoding="UTF-8"?>
<svg xmlns="http://www.w3.org/2000/svg" xmlns:xlink="http://www.w3.org/1999/xlink" id="Layer_1" viewBox="0 0 200 200">
  <defs>
    <style>
      .cls-1, .cls-2 {
        fill: none;
      }

      .cls-3 {
        fill: #c7e6ff;
      }

      .cls-4 {
        fill: #001f65;
      }

      .cls-2 {
        stroke: #001f65;
        stroke-width: 6.55px;
      }

      .cls-5 {
        clip-path: url(#clippath);
      }
    </style>
    <clipPath id="clippath">
      <rect class="cls-1" x="5" y="5" width="190" height="190"></rect>
    </clipPath>
  </defs>
  <g class="cls-5">
    <path class="cls-3" d="M100,191.73c50.58,0,91.73-41.15,91.73-91.73S150.58,8.27,100,8.27,8.27,49.42,8.27,100s41.15,91.73,91.73,91.73"></path>
    <path class="cls-2" d="M100,191.73c50.58,0,91.73-41.15,91.73-91.73S150.58,8.27,100,8.27,8.27,49.42,8.27,100s41.15,91.73,91.73,91.73Z"></path>
    <path class="cls-4" d="M116.45,125.88c0-2.61-2.17-4.56-4.56-4.56-2.61,0-4.77,1.95-4.77,4.56s2.17,4.55,4.77,4.55c2.39,0,4.56-1.95,4.56-4.55M118.84,88.79c0-3.69-3.26-6.94-6.94-6.94-3.9,0-6.94,3.25-6.94,6.94,0,3.9,3.04,6.94,6.94,6.94,3.69,0,6.94-3.04,6.94-6.94M118.84,107.44c0-3.9-3.26-6.94-6.94-6.94-3.9,0-6.94,3.03-6.94,6.94,0,3.69,3.04,6.94,6.94,6.94,3.69,0,6.94-3.25,6.94-6.94M116.45,70.36c0-2.61-2.17-4.56-4.56-4.56-2.61,0-4.77,1.95-4.77,4.56s2.17,4.55,4.77,4.55c2.39,0,4.56-1.95,4.56-4.55M114.06,56.48c0-1.3-.87-2.39-2.17-2.39s-2.39,1.08-2.39,2.39,1.08,2.39,2.39,2.39,2.17-1.08,2.17-2.39M114.06,139.76c0-1.3-.87-2.39-2.17-2.39s-2.39,1.08-2.39,2.39,1.08,2.39,2.39,2.39,2.17-1.08,2.17-2.39M146.6,107.44c0-1.3-1.09-2.39-2.39-2.39s-2.39,1.09-2.39,2.39,1.08,2.17,2.39,2.17,2.39-.87,2.39-2.17M134.89,70.36c0-2.61-1.95-4.56-4.56-4.56s-4.56,1.95-4.56,4.56,1.95,4.55,4.56,4.55,4.56-1.95,4.56-4.55M146.6,88.79c0-1.3-1.09-2.17-2.39-2.17s-2.39.87-2.39,2.17,1.08,2.39,2.39,2.39,2.39-1.09,2.39-2.39M134.89,88.79c0-2.39-1.95-4.56-4.56-4.56s-4.56,2.17-4.56,4.56c0,2.6,1.95,4.77,4.56,4.77s4.56-2.17,4.56-4.77M134.89,125.88c0-2.61-1.95-4.56-4.56-4.56s-4.56,1.95-4.56,4.56,1.95,4.55,4.56,4.55,4.56-1.95,4.56-4.55M134.89,107.44c0-2.6-1.95-4.77-4.56-4.77s-4.56,2.17-4.56,4.77c0,2.39,1.95,4.56,4.56,4.56s4.56-2.17,4.56-4.56M102.57,56.48v83.29c-22.99,0-41.65-18.65-41.65-41.64s18.65-41.65,41.65-41.65"></path>
  </g>
</svg>
