<?xml version="1.0" encoding="UTF-8"?>
<svg xmlns="http://www.w3.org/2000/svg" xmlns:xlink="http://www.w3.org/1999/xlink" id="Layer_1" viewBox="0 0 200 200">
  <defs>
    <style>
      .cls-1, .cls-2 {
        fill: none;
      }

      .cls-3 {
        fill: #c7e6ff;
      }

      .cls-4 {
        fill: #001f65;
      }

      .cls-2 {
        stroke: #001f65;
        stroke-width: 6.55px;
      }

      .cls-5 {
        clip-path: url(#clippath);
      }
    </style>
    <clipPath id="clippath">
      <rect class="cls-1" x="5" y="5" width="190" height="190"></rect>
    </clipPath>
  </defs>
  <g class="cls-5">
    <path class="cls-3" d="M100,191.73c50.58,0,91.73-41.15,91.73-91.73S150.58,8.27,100,8.27,8.27,49.42,8.27,100s41.15,91.73,91.73,91.73"></path>
    <path class="cls-2" d="M100,191.73c50.58,0,91.73-41.15,91.73-91.73S150.58,8.27,100,8.27,8.27,49.42,8.27,100s41.15,91.73,91.73,91.73Z"></path>
    <path class="cls-4" d="M113.77,100.93c0-7.69-5.98-13.68-13.67-13.68s-13.66,5.99-13.66,13.68,6.19,13.68,13.66,13.68,13.67-6.2,13.67-13.68M128.5,102.64l5.77,4.06c1.71,1.5,2.35,4.06,1.07,5.99l-7.26,12.82c-1.28,1.92-3.63,2.78-5.77,1.92l-6.4-2.78c-1.07.64-1.92,1.28-2.99,1.71l-.85,7.05c-.22,2.14-2.35,4.06-4.48,4.06h-14.73c-2.35,0-4.27-1.92-4.48-4.06l-.85-7.05c-1.07-.43-2.14-1.07-2.99-1.71l-6.62,2.78c-1.92.85-4.48,0-5.55-1.92l-7.47-12.82c-1.07-1.92-.64-4.49,1.28-5.99l5.55-4.06v-3.42l-5.55-4.27c-1.92-1.28-2.35-3.85-1.28-5.98l7.47-12.83c1.07-1.92,3.63-2.78,5.77-1.71l6.4,2.56c.85-.43,1.92-1.07,2.99-1.71l.85-6.84c.21-2.35,2.13-4.06,4.48-4.06h14.73c2.13,0,4.27,1.71,4.48,4.06l.85,7.05c1.07.43,1.92,1.07,2.99,1.71l6.4-2.78c2.14-1.07,4.49-.22,5.77,1.92l7.26,12.61c1.28,2.14.64,4.7-1.07,5.98l-5.77,4.27c.22.64.22,1.07.22,1.71s0,1.07-.22,1.71M151.57,94.95l-1.5-3.2c-.85-1.71-3.2-1.71-4.06,0l-1.49,3.2-3.42,1.5c-1.71.86-1.71,3.42,0,4.27l3.42,1.28,1.49,3.42c.64,1.71,3.2,1.71,4.06,0l1.5-3.2,3.2-1.5c1.92-.85,1.92-3.42,0-4.27l-3.2-1.5ZM136.83,73.36l-2.99-6.2-6.19-2.99c-1.92-.86-1.92-3.21,0-4.06l6.19-2.99,2.99-6.41c.85-1.71,3.2-1.71,4.06,0l2.99,6.41,6.4,2.99c1.71.85,1.71,3.2,0,4.06l-6.4,2.99-2.99,6.2c-.64,1.92-3.2,1.92-4.06,0"></path>
  </g>
</svg>
