<?xml version="1.0" encoding="UTF-8"?>
<svg xmlns="http://www.w3.org/2000/svg" id="Layer_1" viewBox="0 0 200 200">
  <defs>
    <style>
      .cls-1 {
        fill: #c7e6ff;
      }

      .cls-2 {
        fill: #001f65;
      }

      .cls-3 {
        fill: none;
        stroke: #001f65;
        stroke-width: 6.78px;
      }
    </style>
  </defs>
  <path class="cls-1" d="M99.7,195.09c52.38,0,95-42.62,95-95S152.08,5.09,99.7,5.09,4.7,47.7,4.7,100.09s42.62,95,95,95"></path>
  <path class="cls-3" d="M99.7,195.09c52.38,0,95-42.62,95-95S152.08,5.09,99.7,5.09,4.7,47.7,4.7,100.09s42.62,95,95,95Z"></path>
  <path class="cls-2" d="M129.01,103.13c-2.85,0-5.23,2.38-5.23,5.23v9.98h-9.98c-2.85,0-5.22,2.37-5.22,5.22,0,2.61,2.37,4.99,5.22,4.99h9.98v10.21c0,2.61,2.38,4.99,5.23,4.99,2.61,0,4.99-2.38,4.99-4.99v-10.21h10.21c2.61,0,4.99-2.38,4.99-4.99,0-2.85-2.38-5.22-4.99-5.22h-10.21v-9.98c0-2.85-2.38-5.23-4.99-5.23M62.98,103.13h30.4c2.85,0,5.23,2.38,5.23,5.23v30.4c0,2.61-2.38,4.99-5.23,4.99h-30.4c-2.61,0-4.99-2.38-4.99-4.99v-30.4c0-2.85,2.37-5.23,4.99-5.23M113.8,52.54h30.4c2.61,0,4.99,2.38,4.99,4.99v30.4c0,2.85-2.38,5.22-4.99,5.22h-30.4c-2.85,0-5.22-2.38-5.22-5.22v-30.4c0-2.61,2.37-4.99,5.22-4.99M62.98,52.54h30.4c2.85,0,5.23,2.38,5.23,4.99v30.4c0,2.85-2.38,5.22-5.23,5.22h-30.4c-2.61,0-4.99-2.38-4.99-5.22v-30.4c0-2.61,2.37-4.99,4.99-4.99"></path>
</svg>
