<?xml version="1.0" encoding="UTF-8"?>
<svg xmlns="http://www.w3.org/2000/svg" viewBox="58 248 690 98" fill="none">
  <g clip-path="url(#clip0_105_264)">
    <path d="M86.4846 296.362C85.2326 294.971 83.3545 295.11 82.485 296.744L62.2433 337.436C61.4782 339.071 62.6259 340.949 64.3649 340.949H92.6058C93.4753 340.949 94.3448 340.462 94.7274 339.558C100.988 326.898 97.2315 307.735 86.4846 296.327V296.362Z" fill="url(#paint0_linear_105_264)"></path>
    <path d="M101.37 259.252C89.9974 277.303 90.7625 297.231 98.2401 312.256C105.752 327.281 111.491 338.688 111.874 339.558C112.256 340.427 113.126 340.949 113.995 340.949H142.236C143.975 340.949 145.227 339.071 144.358 337.436C144.358 337.436 106.378 261.269 105.37 259.391C104.744 257.652 102.483 257.513 101.37 259.252Z" fill="#2684FF"></path>
    <path d="M485.371 320.777C485.371 308.882 479.006 303.248 461.234 299.353C451.356 297.231 448.991 294.971 448.991 291.84C448.991 287.945 452.504 286.206 459.008 286.206C466.868 286.206 474.624 288.571 481.997 291.98V276.329C476.884 273.686 468.885 271.703 459.495 271.703C441.862 271.703 432.749 279.355 432.749 292.014C432.749 302.031 437.375 310.065 455.634 313.578C466.52 315.838 468.746 317.577 468.746 321.229C468.746 324.881 466.485 327.002 458.73 327.002C449.861 327.002 439.218 324.011 432.367 319.873V336.289C437.862 339.036 445.131 342.062 458.625 342.062C477.754 342.062 485.371 333.541 485.371 320.881V320.777Z" fill="#0052CC"></path>
    <path d="M677.597 272.677V340.984H692.1V288.988L698.221 302.761L718.706 340.984H736.965V272.677H722.462V316.777L716.967 303.978L700.482 272.642H677.597V272.677Z" fill="#0052CC"></path>
    <path d="M585.501 272.677H569.606V340.845H585.501V272.677Z" fill="#0052CC"></path>
    <path d="M551.243 320.777C551.243 308.882 544.878 303.248 527.106 299.353C517.228 297.231 514.863 294.971 514.863 291.84C514.863 287.945 518.376 286.206 524.88 286.206C532.74 286.206 540.496 288.571 547.869 291.98V276.329C542.756 273.686 534.757 271.703 525.367 271.703C507.734 271.703 498.621 279.355 498.621 292.014C498.621 302.031 503.247 310.065 521.506 313.578C532.392 315.838 534.618 317.577 534.618 321.229C534.618 324.881 532.357 327.002 524.602 327.002C515.733 327.002 505.09 324.011 498.239 319.873V336.289C503.734 339.036 511.003 342.062 524.497 342.062C543.73 342.062 551.243 333.541 551.243 320.881V320.777Z" fill="#0052CC"></path>
    <path d="M309.734 272.677V340.984H342.218L347.331 326.203H325.594V272.677H309.734Z" fill="#0052CC"></path>
    <path d="M245.357 272.677V287.458H262.991V340.984H278.85V287.458H297.735V272.677H245.357Z" fill="#0052CC"></path>
    <path d="M222.229 272.677H201.361L177.607 340.845H195.727L199.101 329.333C203.1 330.446 207.343 331.211 211.865 331.211C216.386 331.211 220.49 330.585 224.629 329.333L228.002 340.845H246.122L222.264 272.677H222.229ZM211.726 317.16C208.735 317.16 205.709 316.673 202.961 315.908L211.726 286.067L220.49 315.908C217.742 316.673 214.856 317.16 211.726 317.16Z" fill="#0052CC"></path>
    <path d="M398.491 272.677H377.624L353.869 340.845H371.989L375.363 329.333C379.362 330.446 383.606 331.211 388.127 331.211C392.648 331.211 396.752 330.585 400.891 329.333L404.265 340.845H422.385L398.526 272.677H398.491ZM387.988 317.16C384.997 317.16 381.971 316.673 379.223 315.908L387.988 286.067L396.752 315.908C394.005 316.673 391.014 317.16 387.988 317.16Z" fill="#0052CC"></path>
    <path d="M642.469 272.677H621.602L597.847 340.845H615.967L619.341 329.333C623.34 330.446 627.584 331.211 632.105 331.211C636.626 331.211 640.73 330.585 644.869 329.333L648.243 340.845H666.363L642.504 272.677H642.469ZM632.105 317.16C629.114 317.16 626.088 316.673 623.375 315.908L632.105 286.067L640.869 315.908C637.983 316.673 635.131 317.16 632.105 317.16Z" fill="#0052CC"></path>
  </g>
  <defs>
    <linearGradient id="paint0_linear_105_264" x1="97.6489" y1="302.552" x2="76.1551" y2="339.697" gradientUnits="userSpaceOnUse">
      <stop stop-color="#0052CC"></stop>
      <stop offset="0.92" stop-color="#2684FF"></stop>
    </linearGradient>
    <clipPath id="clip0_105_264">
      <rect width="675" height="83.9576" fill="white" transform="translate(62 258)"></rect>
    </clipPath>
  </defs>
</svg>
