<?xml version="1.0" encoding="UTF-8"?>
<svg xmlns="http://www.w3.org/2000/svg" viewBox="188 168 432 262" fill="none">
  <path d="M309.261 267.249C309.261 271.343 309.261 275.437 311.308 279.531C312.263 282.67 314.31 286.764 315.402 289.766C316.357 290.857 316.357 291.813 316.357 292.904C316.357 294.951 315.402 296.043 313.218 296.998L303.938 303.139H300.936C298.889 303.139 297.797 302.184 296.842 301.092C294.795 299.045 292.748 296.998 291.656 294.951C290.701 292.904 288.517 289.766 287.562 286.764C277.326 299.045 262.997 306.278 246.62 306.278C236.385 307.233 226.15 303.139 219.053 296.043C211.82 288.811 208.818 279.667 208.818 269.433C208.818 258.243 212.912 248.008 221.1 240.775C230.38 233.543 242.526 229.585 254.945 229.585C260.131 229.585 265.18 229.585 269.275 230.541L284.559 233.543V223.308C285.515 215.12 283.468 206.932 278.418 200.792C272.277 195.606 264.089 193.696 255.9 194.651C250.714 194.651 245.665 195.606 240.616 196.698C235.566 197.789 230.38 199.836 225.331 201.883C223.284 202.839 222.192 202.839 220.145 203.93H218.098C216.051 203.93 214.959 202.839 214.959 199.836V192.604C214.959 190.557 214.959 189.602 215.914 187.418C216.87 186.463 217.961 185.371 220.008 184.416C225.194 181.277 231.199 179.23 237.34 178.275C244.573 176.228 251.67 175.136 258.903 175.136C272.14 174.181 284.559 178.275 294.658 186.326C302.846 195.606 306.941 207.751 305.849 220.169L308.851 267.249H309.261ZM253.034 287.719C258.22 287.719 262.314 286.764 267.364 285.672C272.55 283.625 276.644 280.486 280.738 276.392C282.785 274.345 284.832 271.207 285.924 267.113C287.016 263.019 286.879 258.925 286.879 254.831V248.69C282.785 247.735 278.691 246.643 274.597 246.643C270.503 245.688 266.409 245.688 261.223 245.688C254.126 244.733 246.893 246.643 240.752 250.874C232.564 259.062 231.472 272.298 238.705 281.578C242.799 286.764 247.848 288.674 253.034 287.719ZM364.532 303.139C362.484 303.139 360.437 303.139 359.346 302.184C358.39 301.229 357.299 299.045 356.343 296.998L323.59 189.465C322.635 187.418 322.635 185.371 322.635 184.28C322.635 182.233 323.59 181.141 324.682 181.141H339.011C341.058 181.141 343.106 181.141 344.197 182.096C345.153 183.188 346.244 185.235 347.336 187.282L370.809 278.439L392.372 187.282C392.372 185.235 393.327 183.188 395.374 182.096C397.421 181.141 399.468 181.141 400.56 181.141H411.751C413.798 181.141 415.845 181.141 416.937 182.096C418.028 183.188 418.984 185.235 420.075 187.282L441.501 280.486L465.111 187.282C465.111 185.235 466.066 183.188 468.113 182.096C470.16 181.141 471.252 181.141 473.299 181.141H486.673C488.72 181.141 489.812 182.096 489.812 183.188V186.19C489.812 187.145 488.72 188.237 488.72 189.329L455.967 295.77C455.967 297.817 455.012 299.864 452.829 300.956C451.873 303.003 449.826 303.003 447.643 303.003H435.36C433.313 303.003 431.266 303.003 430.174 302.047C429.219 300.001 428.127 298.909 427.035 296.862L405.609 207.751L384.183 296.862C384.183 298.909 383.228 300.956 381.045 302.047C380.089 303.003 378.042 303.003 376.95 303.003H364.668L364.532 303.139ZM542.627 307.233C535.53 307.233 528.297 306.278 521.201 305.186C516.015 304.231 510.01 302.184 504.824 300.001C501.685 299.045 499.638 295.907 499.638 291.813V284.58C499.638 281.578 500.593 280.486 502.641 280.486H504.688C505.643 280.486 506.735 281.442 507.69 281.442C512.876 283.488 517.925 285.535 522.975 286.627C528.161 287.582 534.165 288.674 539.351 288.674C546.584 288.674 553.681 287.719 559.822 283.488C563.916 280.486 567.055 275.301 567.055 270.252C567.055 266.158 566.1 263.019 562.961 260.972C558.867 257.833 553.681 254.831 548.631 253.739L528.161 247.599C519.972 245.552 511.784 240.502 505.643 233.27C501.549 227.129 498.41 220.033 498.41 212.8C498.41 207.615 499.502 202.566 502.504 197.516C504.551 193.423 508.645 189.329 512.739 186.326C516.834 183.324 522.019 180.186 527.069 179.23C533.21 177.183 538.26 177.183 544.401 177.183C547.54 177.183 550.542 177.183 553.681 178.275C556.82 178.275 559.822 179.23 562.961 180.322C566.1 181.414 568.147 181.277 571.149 182.369C573.196 183.461 575.243 183.461 577.29 184.416C579.337 185.371 580.293 186.463 581.385 187.418C582.34 188.51 582.34 190.557 582.34 192.604V198.745C582.34 201.747 581.385 202.839 579.201 202.839C577.017 202.839 575.107 201.883 574.015 200.792C565.827 196.698 556.683 195.606 547.403 195.606C541.262 195.606 535.121 196.561 528.98 199.7C524.885 201.747 521.883 206.796 522.838 211.982C522.838 216.076 523.794 219.214 526.932 222.216C531.027 226.31 536.213 228.357 542.217 229.449L561.733 235.59C569.921 237.637 577.017 242.686 583.159 248.827C587.253 254.012 589.3 261.108 589.3 268.341C589.3 273.527 588.345 279.531 585.206 284.717C583.159 289.902 579.065 293.996 574.97 296.998C570.876 300.001 564.735 303.139 559.686 305.186C555.591 306.278 548.495 307.233 542.354 307.233H542.627Z" fill="#242E3D"></path>
  <path d="M568.283 373.826C522.156 407.533 456.65 425 399.332 425C323.59 425 249.896 397.298 193.669 346.124C189.575 342.03 193.669 336.981 198.855 339.983C261.223 376.828 332.87 395.251 404.518 395.251C458.833 395.251 512.057 384.061 562.142 363.591C569.239 360.453 576.472 368.777 568.283 373.826ZM575.38 404.53C573.333 408.624 577.427 410.671 581.521 407.533C606.086 387.063 612.227 344.077 607.178 337.936C601.992 331.795 559.003 326.746 533.483 345.032C529.389 348.171 530.481 352.265 534.439 351.173C548.768 349.126 581.521 345.032 587.662 353.22C593.804 361.408 580.429 391.021 575.38 404.394V404.53Z" fill="#FF9900"></path>
</svg>
