<?xml version="1.0" encoding="UTF-8"?>
<svg xmlns="http://www.w3.org/2000/svg" viewBox="75 231 650 139" fill="none">
  <g clip-path="url(#clip0_104_219)">
    <path d="M75 231H141.031C141.027 253.01 141.031 275.021 141.027 297.031H75V231Z" fill="#F25022"></path>
    <path d="M147.773 231H213.804C213.804 253.01 213.808 275.021 213.804 297.031C191.798 297.031 169.787 297.031 147.781 297.031C147.773 275.021 147.777 253.01 147.777 231H147.773Z" fill="#80BA01"></path>
    <path d="M670.45 256.159C676.538 252.197 684.402 251.829 691.263 253.716C691.322 257.793 691.271 261.874 691.291 265.955C688.031 264.519 684.196 263.583 680.765 264.991C678.045 266.07 676.427 268.862 676.002 271.654C675.491 275.195 675.824 278.784 675.737 282.346C682.701 282.361 689.665 282.346 696.629 282.354C696.68 277.832 696.573 273.307 696.688 268.786C701.423 267.438 706.107 265.927 710.818 264.507C710.858 270.464 710.763 276.425 710.87 282.385C715.577 282.318 720.289 282.369 725 282.354V293.95C720.273 293.755 715.542 293.898 710.814 293.882C710.834 300.549 710.818 307.215 710.822 313.886C710.898 317.578 710.624 321.29 711.056 324.97C711.318 327.14 712.107 329.543 714.142 330.665C717.548 332.573 721.871 331.74 725 329.646V341.357C720.919 343.13 716.359 343.669 711.945 343.356C707.757 343.047 703.418 341.524 700.686 338.192C697.529 334.429 696.716 329.333 696.652 324.566C696.617 314.334 696.656 304.102 696.636 293.866C689.668 293.862 682.701 293.858 675.737 293.866C675.729 309.924 675.733 325.982 675.733 342.039H661.452C661.452 325.986 661.432 309.936 661.46 293.882C658.148 293.819 654.833 293.898 651.521 293.831C651.533 290.019 651.549 286.204 651.513 282.389C654.809 282.314 658.108 282.346 661.412 282.369C661.654 277.301 660.881 272.086 662.395 267.149C663.676 262.691 666.524 258.67 670.45 256.155V256.159Z" fill="#777777"></path>
    <path d="M364.692 256.992C367.571 256.556 370.688 257.539 372.596 259.792C374.833 262.259 375.245 266.185 373.588 269.068C371.755 272.32 367.655 273.831 364.081 273.05C360.373 272.383 357.284 268.937 357.451 265.094C357.343 261.049 360.726 257.444 364.692 256.992Z" fill="#777777"></path>
    <path d="M255.247 258.761H276.016C282.48 275.175 288.992 291.574 295.465 307.989C297.118 312.093 298.665 316.246 300.398 320.318C308.714 299.807 317.15 279.347 325.403 258.808C332.061 258.701 338.724 258.785 345.386 258.769C345.371 286.526 345.379 314.282 345.386 342.039C340.58 342.027 335.777 342.079 330.975 342.012C331.026 321.528 330.971 301.044 330.998 280.557C331.006 279.637 330.975 278.717 330.911 277.797C330.63 278.225 330.38 278.669 330.162 279.129C321.909 300.097 313.497 321.005 305.292 341.992C301.873 342.115 298.451 342 295.028 342.055C286.514 321.088 278.106 300.073 269.635 279.09C269.413 278.653 269.175 278.229 268.917 277.821C268.743 286.795 268.89 295.778 268.842 304.753C268.846 317.181 268.834 329.61 268.846 342.039C264.313 342.051 259.78 342.039 255.251 342.043C255.251 314.282 255.243 286.522 255.251 258.761H255.247Z" fill="#777777"></path>
    <path d="M403.994 282.298C410.886 280.335 418.318 280.414 425.207 282.362C426.627 282.758 428.003 283.309 429.28 284.059C429.2 288.608 429.28 293.161 429.236 297.713C424.632 294.196 418.79 291.967 412.937 292.705C408.289 293.125 403.855 295.536 401.075 299.292C397.502 303.948 396.677 310.13 397.291 315.825C397.751 320.283 399.596 324.737 403.062 327.691C406.663 330.892 411.711 332.026 416.423 331.669C421.078 331.133 425.473 329.162 429.236 326.41C429.276 330.721 429.216 335.032 429.268 339.343C423.43 342.817 416.431 343.713 409.748 343.384C402.911 343.023 396.094 340.433 391.144 335.627C385.767 330.443 382.848 323.051 382.503 315.647C382.154 307.949 383.72 299.918 388.15 293.49C391.862 288.005 397.668 284.122 403.994 282.298Z" fill="#777777"></path>
    <path d="M559.99 281.39C566.593 280.228 573.505 281.081 579.755 283.448C579.763 287.826 579.755 292.201 579.759 296.575C575.393 293.573 570.059 291.959 564.761 292.145C562.091 292.248 559.157 293.379 557.939 295.917C556.972 298.427 557.642 301.719 560.009 303.222C564.059 305.93 568.889 307.081 573.085 309.508C576.388 311.364 579.593 313.791 581.266 317.289C584.411 323.84 583.079 332.498 577.55 337.383C572.272 342.317 564.669 343.681 557.678 343.419C552.712 343.098 547.723 342.119 543.159 340.088C543.178 335.484 543.131 330.883 543.182 326.283C547.021 329.071 551.451 331.066 556.139 331.875C559.403 332.406 562.952 332.43 565.994 330.971C568.905 329.523 569.428 325.387 567.699 322.857C566.081 320.905 563.706 319.831 561.465 318.776C557.257 316.884 552.835 315.302 549.139 312.466C546.542 310.44 544.574 307.584 543.805 304.364C542.663 299.617 543.02 294.267 545.78 290.119C548.933 285.284 554.41 282.385 559.99 281.39Z" fill="#777777"></path>
    <path d="M461.213 283.27C465.155 280.902 470.164 280.704 474.466 282.151C474.447 286.914 474.466 291.677 474.455 296.44C471.639 294.616 468.125 293.835 464.802 294.172C460.749 294.632 457.536 297.745 455.871 301.314C454.062 305.094 453.721 309.369 453.836 313.501C453.836 323.015 453.84 332.529 453.836 342.043H439.758C439.746 322.159 439.773 302.27 439.746 282.385C444.445 282.326 449.145 282.35 453.844 282.373C453.824 285.788 453.844 289.203 453.832 292.621C455.359 288.905 457.632 285.296 461.213 283.27Z" fill="#777777"></path>
    <path d="M358.747 282.373C363.483 282.354 368.222 282.306 372.957 282.397C372.901 302.278 372.953 322.163 372.933 342.043H358.755C358.743 322.155 358.755 302.266 358.747 282.373Z" fill="#777777"></path>
    <path d="M533.664 296.29C531.186 290.777 526.712 286.173 521.192 283.682C514.831 280.787 507.601 280.398 500.748 281.271C493.55 282.179 486.542 285.566 481.974 291.305C477.802 296.428 475.771 303.012 475.383 309.543C474.808 317.241 476.092 325.411 480.613 331.835C484.464 337.38 490.544 341.191 497.111 342.595C502.6 343.749 508.343 343.753 513.831 342.611C520.252 341.29 526.248 337.737 530.226 332.494C534.113 327.556 536.064 321.33 536.504 315.115C536.952 308.75 536.31 302.159 533.664 296.29ZM519.871 323.686C518.507 326.755 516.009 329.349 512.856 330.578C509.167 331.994 505.023 332.077 501.216 331.09C497.341 330.071 494.054 327.271 492.265 323.705C489.965 319.113 489.62 313.803 490.096 308.766C490.528 304.186 492.122 299.474 495.612 296.313C498.142 293.95 501.593 292.796 505.007 292.605C509.298 292.324 513.867 293.537 516.952 296.658C520.252 299.902 521.529 304.61 521.882 309.099C522.136 314.013 521.933 319.133 519.871 323.686Z" fill="#777777"></path>
    <path d="M648.035 298.015C645.838 292.09 641.44 286.966 635.769 284.13C629.265 280.847 621.698 280.367 614.571 281.251C608.825 281.989 603.178 284.17 598.791 288.021C593.437 292.633 590.296 299.415 589.372 306.351C588.492 313.287 588.789 320.592 591.617 327.084C594.33 333.453 599.684 338.625 606.124 341.159C612.481 343.661 619.548 343.943 626.239 342.86C633.08 341.73 639.56 338.133 643.796 332.597C648.321 326.878 650.268 319.478 650.256 312.268C650.355 307.441 649.752 302.548 648.035 298.015ZM635.154 318.248C634.607 321.389 633.52 324.522 631.462 327.009C629.388 329.507 626.302 331.03 623.118 331.498C619.699 332.01 616.098 331.764 612.902 330.388C609.451 328.928 606.778 325.942 605.371 322.508C603.677 318.415 603.34 313.882 603.677 309.504C604.002 305.264 605.204 300.914 608.004 297.618C610.558 294.541 614.476 292.839 618.426 292.617C622.459 292.336 626.766 293.268 629.868 295.992C632.727 298.364 634.309 301.917 635.035 305.494C635.852 309.69 635.844 314.033 635.154 318.248Z" fill="#777777"></path>
    <path d="M75 303.769C97.0104 303.777 119.021 303.765 141.031 303.777C141.031 325.787 141.031 347.794 141.031 369.804H75V303.769Z" fill="#02A4EF"></path>
    <path d="M147.777 303.777C169.783 303.769 191.794 303.777 213.804 303.777V369.808H147.773C147.777 347.798 147.773 325.787 147.777 303.781V303.777Z" fill="#FFB902"></path>
  </g>
  <defs>
    <clipPath id="clip0_104_219">
      <rect width="650" height="138.804" fill="white" transform="translate(75 231)"></rect>
    </clipPath>
  </defs>
</svg>
