<?xml version="1.0" encoding="UTF-8"?>
<svg xmlns="http://www.w3.org/2000/svg" viewBox="70 255 660 90" fill="none">
  <path fill-rule="evenodd" clip-rule="evenodd" d="M640.891 307.487H709.672L719.151 292.911H640.871C644.095 281.627 654.558 273.424 666.952 273.424H714.189L723.629 258.809H665.87C642.782 258.809 624.038 277.333 624.038 300.208C624.038 323.084 642.782 341.55 665.87 341.55H715.56L725 326.993H666.952C654.539 326.993 644.095 318.752 640.871 307.506L640.891 307.487ZM519.794 341.531L529.195 326.974H471.204C456.186 326.974 444.062 314.958 444.062 300.189C444.062 285.42 456.166 273.405 471.204 273.405H518.404L527.921 258.77H470.104C446.958 258.77 428.175 277.294 428.175 300.17C428.175 323.046 446.958 341.512 470.104 341.512H519.794V341.531ZM117.952 326.974C102.991 326.974 90.8683 314.958 90.8683 300.189C90.8683 285.42 102.991 273.405 117.952 273.405H164.438C179.437 273.405 191.56 285.362 191.56 300.189C191.56 315.016 179.456 326.974 164.438 326.974H117.952ZM165.538 341.531C188.684 341.531 207.332 323.046 207.332 300.189C207.332 277.333 188.684 258.789 165.538 258.789H116.871C93.7446 258.789 75 277.313 75 300.189C75 323.065 93.7446 341.531 116.891 341.531H165.557H165.538ZM314.626 286.768C314.626 271.325 302.02 258.789 286.345 258.789H215.903V341.55H232.003V273.424H285.264C292.735 273.424 298.796 279.393 298.796 286.768C298.796 294.143 292.735 300.208 285.264 300.208L239.86 300.17L287.928 341.55H311.286L278.99 314.746H286.306C301.982 314.746 314.587 302.211 314.587 286.768H314.626ZM552.65 258.789H536.511V333.617C536.511 335.658 537.38 337.661 538.886 339.105C540.43 340.665 542.534 341.531 544.754 341.531H618.092L627.648 326.916H552.631V258.789H552.65ZM398.562 312.359L375.879 276.177L334.239 341.55H315.205L365.899 263.103C368.061 259.926 371.787 258 375.84 258C379.894 258 383.466 259.868 385.628 262.968L436.495 341.55H417.519L408.581 326.935H365.088L355.609 312.378H398.562V312.359Z" fill="#C74634"></path>
</svg>
