<?xml version="1.0" encoding="UTF-8"?>
<svg xmlns="http://www.w3.org/2000/svg" viewBox="150 125 500 350" fill="none">
  <g clip-path="url(#clip0_104_2)">
    <path d="M358.08 163.171C374.205 146.373 396.655 135.956 421.482 135.956C454.495 135.956 483.292 154.357 498.621 181.685C511.954 175.73 526.7 172.422 542.219 172.422C601.753 172.422 650.027 221.112 650.027 281.161C650.027 341.21 601.764 389.911 542.219 389.911C534.953 389.911 527.855 389.171 520.981 387.792C507.479 411.878 481.744 428.149 452.196 428.149C439.839 428.149 428.143 425.301 417.726 420.21C404.045 452.416 372.142 475 334.969 475C297.796 475 263.258 450.509 250.598 416.151C245.069 417.317 239.328 417.934 233.441 417.934C187.364 417.934 150 380.178 150 333.607C150 302.389 166.776 275.139 191.726 260.562C186.59 248.742 183.742 235.701 183.742 221.987C183.742 168.43 227.228 125 280.852 125C312.34 125 340.329 139.97 358.08 163.171Z" fill="#139CD8"></path>
    <path d="M222.418 306.493C222.104 307.311 222.53 307.479 222.631 307.625C223.573 308.309 224.515 308.803 225.479 309.352C230.581 312.055 235.403 312.84 240.438 312.84C250.698 312.84 257.068 307.39 257.068 298.61V298.441C257.068 290.323 249.869 287.362 243.129 285.232L242.243 284.951C237.152 283.303 232.768 281.868 232.768 278.526V278.358C232.768 275.487 235.336 273.379 239.305 273.379C243.724 273.379 248.96 274.848 252.336 276.72C252.336 276.72 253.334 277.36 253.692 276.395C253.894 275.868 255.599 271.282 255.778 270.777C255.969 270.239 255.632 269.835 255.274 269.622C251.416 267.279 246.09 265.675 240.573 265.675H239.552C230.155 265.675 223.606 271.36 223.606 279.479V279.647C223.606 288.203 230.839 290.995 237.612 292.924L238.7 293.261C243.634 294.774 247.895 296.086 247.895 299.551V299.731C247.895 302.904 245.125 305.27 240.673 305.27C238.935 305.27 233.418 305.237 227.464 301.469C226.746 301.043 226.331 300.74 225.771 300.404C225.479 300.224 224.739 299.899 224.414 300.863L222.395 306.481L222.418 306.493Z" fill="white"></path>
    <path d="M372.579 306.493C372.265 307.311 372.692 307.479 372.793 307.625C373.734 308.309 374.676 308.803 375.641 309.352C380.743 312.055 385.565 312.84 390.6 312.84C400.86 312.84 407.23 307.39 407.23 298.61V298.441C407.23 290.323 400.03 287.362 393.291 285.232L392.405 284.951C387.314 283.303 382.93 281.868 382.93 278.526V278.358C382.93 275.487 385.498 273.379 389.467 273.379C393.885 273.379 399.122 274.848 402.497 276.72C402.497 276.72 403.495 277.36 403.854 276.395C404.056 275.868 405.761 271.282 405.94 270.777C406.131 270.239 405.794 269.835 405.435 269.622C401.578 267.279 396.251 265.675 390.734 265.675H389.714C380.317 265.675 373.768 271.36 373.768 279.479V279.647C373.768 288.203 381.012 290.995 387.774 292.924L388.862 293.261C393.796 294.774 398.068 296.086 398.068 299.551V299.731C398.068 302.904 395.298 305.27 390.835 305.27C389.097 305.27 383.591 305.237 377.626 301.469C376.908 301.043 376.482 300.751 375.932 300.404C375.753 300.292 374.878 299.944 374.587 300.863L372.557 306.481L372.579 306.493Z" fill="white"></path>
    <path d="M483.651 280.096C482.81 277.247 481.498 274.747 479.759 272.661C478.021 270.564 475.801 268.882 473.177 267.66C470.564 266.438 467.469 265.821 464.004 265.821C460.539 265.821 457.433 266.449 454.82 267.66C452.207 268.871 449.987 270.564 448.249 272.661C446.5 274.747 445.188 277.259 444.358 280.096C443.517 282.922 443.091 286.017 443.091 289.291C443.091 292.565 443.517 295.672 444.358 298.497C445.199 301.334 446.5 303.835 448.249 305.932C449.987 308.029 452.208 309.7 454.831 310.888C457.455 312.077 460.539 312.683 464.015 312.683C467.492 312.683 470.564 312.077 473.188 310.888C475.801 309.7 478.021 308.018 479.771 305.932C481.509 303.846 482.832 301.334 483.662 298.497C484.503 295.672 484.929 292.577 484.929 289.291C484.929 286.005 484.503 282.922 483.662 280.096M475.095 289.291C475.095 294.247 474.164 298.172 472.347 300.931C470.542 303.667 467.817 305.001 464.015 305.001C460.214 305.001 457.5 303.667 455.717 300.931C453.912 298.172 453.004 294.247 453.004 289.291C453.004 284.335 453.912 280.432 455.706 277.696C457.489 274.994 460.203 273.67 464.015 273.67C467.828 273.67 470.542 274.982 472.347 277.696C474.175 280.432 475.095 284.335 475.095 289.291Z" fill="white"></path>
    <path fill-rule="evenodd" clip-rule="evenodd" d="M553.96 303.678C553.68 302.848 552.861 303.162 552.861 303.162C551.616 303.644 550.293 304.07 548.88 304.295C547.456 304.519 545.886 304.631 544.193 304.631C540.055 304.631 536.758 303.398 534.392 300.964C532.037 298.52 530.703 294.584 530.714 289.257C530.725 284.413 531.903 280.769 534 277.988C536.085 275.229 539.27 273.805 543.498 273.805C547.03 273.805 549.721 274.22 552.547 275.094C552.547 275.094 553.22 275.386 553.534 274.511C554.296 272.426 554.846 270.945 555.642 268.658C555.866 268.007 555.317 267.727 555.104 267.649C553.994 267.211 551.381 266.505 549.396 266.202C547.557 265.922 545.382 265.776 542.971 265.776C539.382 265.776 536.175 266.393 533.428 267.615C530.692 268.826 528.371 270.508 526.531 272.605C524.692 274.702 523.302 277.203 522.371 280.04C521.44 282.865 520.97 285.972 520.97 289.257C520.97 296.355 522.876 302.097 526.666 306.291C530.456 310.518 536.142 312.66 543.565 312.66C547.95 312.66 552.446 311.774 555.687 310.496C555.687 310.496 556.304 310.193 556.035 309.475L553.938 303.667L553.96 303.678Z" fill="white"></path>
    <path fill-rule="evenodd" clip-rule="evenodd" d="M597.76 278.481C597.032 275.734 595.237 272.964 594.06 271.697C592.199 269.678 590.359 268.277 588.554 267.503C586.199 266.494 583.362 265.821 580.245 265.821C576.634 265.821 573.348 266.426 570.68 267.682C568.011 268.927 565.768 270.643 564.007 272.773C562.247 274.893 560.924 277.427 560.083 280.298C559.242 283.146 558.816 286.252 558.816 289.538C558.816 292.823 559.253 295.997 560.127 298.789C561.013 301.615 562.415 304.093 564.321 306.156C566.228 308.231 568.684 309.846 571.61 310.989C574.526 312.111 578.069 312.705 582.129 312.683C590.494 312.66 594.912 310.799 596.729 309.789C597.054 309.61 597.357 309.296 596.976 308.399L595.069 303.095C594.778 302.31 593.981 302.59 593.981 302.59C591.907 303.364 588.958 304.743 582.084 304.732C577.587 304.732 574.257 303.398 572.171 301.323C570.029 299.204 568.975 296.086 568.796 291.691L597.772 291.713C597.772 291.713 598.534 291.713 598.613 290.951C598.646 290.637 599.6 284.996 597.749 278.47M568.941 284.536C569.356 281.778 570.108 279.49 571.285 277.707C573.057 274.994 575.759 273.491 579.572 273.491C583.385 273.491 585.885 274.994 587.691 277.707C588.89 279.501 589.406 281.879 589.619 284.548H568.941V284.536Z" fill="white"></path>
    <path fill-rule="evenodd" clip-rule="evenodd" d="M365.649 278.481C364.921 275.734 363.126 272.964 361.949 271.697C360.087 269.678 358.26 268.277 356.443 267.503C354.077 266.494 351.251 265.821 348.145 265.821C344.523 265.821 341.237 266.426 338.569 267.682C335.9 268.927 333.657 270.643 331.896 272.773C330.136 274.893 328.813 277.427 327.972 280.298C327.131 283.146 326.704 286.252 326.704 289.538C326.704 292.823 327.142 295.997 328.016 298.789C328.902 301.615 330.304 304.093 332.21 306.156C334.117 308.231 336.572 309.846 339.499 310.989C342.415 312.111 345.958 312.705 350.018 312.683C358.383 312.66 362.801 310.799 364.618 309.789C364.943 309.61 365.246 309.296 364.864 308.399L362.958 303.095C362.667 302.31 361.87 302.59 361.87 302.59C359.796 303.364 356.847 304.743 349.973 304.732C345.487 304.732 342.146 303.398 340.06 301.323C337.918 299.204 336.864 296.086 336.685 291.691L365.661 291.713C365.661 291.713 366.423 291.713 366.502 290.951C366.535 290.637 367.488 284.996 365.638 278.47M336.83 284.536C337.245 281.778 337.997 279.49 339.163 277.707C340.946 274.994 343.648 273.491 347.45 273.491C351.251 273.491 353.774 274.994 355.58 277.707C356.768 279.501 357.295 281.879 357.497 284.548H336.819L336.83 284.536Z" fill="white"></path>
    <path d="M285.707 283.157C284.53 283.067 283.005 283.022 281.188 283.022C278.699 283.022 276.299 283.336 274.045 283.942C271.78 284.547 269.75 285.489 268.001 286.745C266.241 288.013 264.828 289.616 263.796 291.534C262.764 293.451 262.248 295.694 262.248 298.206C262.248 300.718 262.686 303.005 263.583 304.822C264.469 306.65 265.736 308.186 267.362 309.352C268.977 310.529 270.961 311.393 273.26 311.909C275.537 312.436 278.116 312.694 280.942 312.694C283.913 312.694 286.874 312.447 289.744 311.954C292.593 311.471 296.069 310.765 297.044 310.541C298.009 310.316 299.074 310.025 299.074 310.025C299.792 309.845 299.736 309.072 299.736 309.072V282.574C299.724 276.754 298.166 272.448 295.116 269.768C292.077 267.11 287.591 265.765 281.794 265.765C279.618 265.765 276.131 266.056 274.023 266.482C274.023 266.482 267.698 267.705 265.097 269.757C265.097 269.757 264.525 270.104 264.828 270.912L266.88 276.429C267.138 277.146 267.833 276.9 267.833 276.9C267.833 276.9 268.057 276.81 268.315 276.653C273.888 273.625 280.942 273.715 280.942 273.715C284.07 273.715 286.481 274.354 288.107 275.588C289.688 276.81 290.484 278.627 290.484 282.495V283.718C287.995 283.359 285.707 283.157 285.707 283.157ZM274.18 303.521C273.036 302.613 272.89 302.388 272.509 301.805C271.926 300.919 271.634 299.652 271.634 298.037C271.634 295.492 272.475 293.653 274.225 292.431C274.213 292.431 276.725 290.255 282.635 290.334C286.784 290.39 290.507 291.007 290.507 291.007V304.183C290.507 304.183 286.829 304.968 282.68 305.214C276.781 305.573 274.157 303.521 274.18 303.521Z" fill="white"></path>
    <path fill-rule="evenodd" clip-rule="evenodd" d="M519.478 268.22C519.702 267.57 519.231 267.256 519.041 267.178C518.547 266.998 516.08 266.471 514.185 266.348C510.541 266.124 508.522 266.74 506.706 267.548C504.9 268.355 502.916 269.667 501.817 271.158V267.626C501.817 267.144 501.469 266.751 500.976 266.751H493.541C493.059 266.751 492.711 267.144 492.711 267.626V310.866C492.711 311.348 493.104 311.741 493.597 311.741H501.211C501.693 311.741 502.086 311.348 502.086 310.866V289.268C502.086 286.364 502.411 283.482 503.05 281.666C503.678 279.86 504.53 278.436 505.584 277.404C506.638 276.373 507.85 275.655 509.173 275.251C510.518 274.837 512.01 274.702 513.053 274.702C514.578 274.702 516.237 275.094 516.237 275.094C516.798 275.151 517.112 274.803 517.303 274.309C517.796 272.986 519.209 269.017 519.478 268.22Z" fill="white"></path>
    <path fill-rule="evenodd" clip-rule="evenodd" d="M448.002 248.182C447.072 247.89 446.242 247.7 445.132 247.509C444.01 247.307 442.687 247.195 441.196 247.195C435.959 247.195 431.821 248.675 428.928 251.602C426.046 254.506 424.084 258.925 423.097 264.744L422.749 266.707H416.167C416.167 266.707 415.359 266.673 415.191 267.548L414.115 273.57C414.036 274.141 414.283 274.5 415.057 274.5H421.46L414.956 310.776C414.451 313.692 413.868 316.092 413.218 317.919C412.59 319.725 411.962 321.059 411.199 322.046C410.459 322.988 409.764 323.694 408.542 324.098C407.544 324.423 406.389 324.58 405.133 324.58C404.437 324.58 403.507 324.468 402.811 324.322C402.116 324.188 401.757 324.031 401.242 323.818C401.242 323.818 400.49 323.526 400.187 324.278C399.952 324.894 398.247 329.593 398.046 330.176C397.844 330.748 398.124 331.196 398.494 331.331C399.346 331.634 399.974 331.836 401.141 332.105C402.755 332.486 404.112 332.508 405.391 332.508C408.059 332.508 410.493 332.138 412.5 331.409C414.53 330.669 416.29 329.391 417.86 327.675C419.542 325.814 420.607 323.851 421.628 321.183C422.637 318.547 423.489 315.262 424.173 311.449L430.7 274.5H440.243C440.243 274.5 441.05 274.534 441.218 273.659L442.295 267.638C442.373 267.066 442.126 266.707 441.353 266.707H432.09C432.135 266.505 432.55 263.242 433.615 260.169C434.075 258.857 434.927 257.803 435.656 257.074C436.363 256.357 437.181 255.852 438.078 255.56C438.998 255.269 440.041 255.123 441.185 255.123C442.059 255.123 442.911 255.224 443.562 255.359C444.459 255.549 444.806 255.65 445.042 255.717C445.984 256.009 446.107 255.729 446.298 255.28L448.507 249.191C448.731 248.541 448.182 248.26 447.98 248.182" fill="white"></path>
    <path fill-rule="evenodd" clip-rule="evenodd" d="M318.519 310.866C318.519 311.348 318.171 311.752 317.689 311.752H309.996C309.514 311.752 309.166 311.359 309.166 310.866V249.012C309.166 248.529 309.514 248.137 309.996 248.137H317.689C318.171 248.137 318.519 248.529 318.519 249.012V310.866Z" fill="white"></path>
  </g>
  <defs>
    <clipPath id="clip0_104_2">
      <rect width="500.038" height="350" fill="white" transform="translate(150 125)"></rect>
    </clipPath>
  </defs>
</svg>
