<?xml version="1.0" encoding="UTF-8"?>
<svg xmlns="http://www.w3.org/2000/svg" viewBox="62 215 670 168" fill="none">
  <mask id="mask0_105_238" style="mask-type:luminance" maskUnits="userSpaceOnUse" x="62" y="223" width="670" height="154">
    <mask id="mask1_105_238" style="mask-type:luminance" maskUnits="userSpaceOnUse" x="50" y="214" width="700" height="168">
      <path d="M750 214.949H50V381.615H750V214.949Z" fill="white"></path>
    </mask>
    <g mask="url(#mask1_105_238)">
      <path d="M476.641 271.551H476.628C476.628 271.551 476.628 271.539 476.602 271.539C476.154 271.333 475.654 271.231 475.167 271.231C474.384 271.231 473.641 271.462 473 271.872C472.333 272.295 471.782 272.897 471.461 273.667L456.32 315.115L444.654 287.346H444.641C444.308 286.551 443.731 285.962 443.064 285.539C442.384 285.115 441.615 284.885 440.795 284.885C439.974 284.885 439.256 285.128 438.602 285.539C437.961 285.962 437.384 286.551 437.051 287.321L425.359 315.128L410.141 273.718C409.872 272.923 409.333 272.295 408.692 271.885C408.038 271.462 407.269 271.231 406.487 271.231C405.987 271.231 405.474 271.333 405 271.539H404.961C403.538 272.218 402.679 273.641 402.667 275.18C402.667 275.667 402.769 276.154 402.949 276.628L421.667 326.897C421.808 327.295 422.013 327.667 422.32 328.026C422.538 328.282 422.859 328.5 423.192 328.692C423.256 328.756 423.346 328.833 423.5 328.923C423.654 329.026 423.859 329.09 424.064 329.128C424.397 329.244 424.846 329.397 425.436 329.397C426.192 329.397 426.897 329.128 427.526 328.718C428.115 328.321 428.641 327.731 428.936 326.974L428.987 326.936L440.82 298.641L452.679 326.821C452.949 327.577 453.436 328.167 453.987 328.577C454.577 329.026 455.231 329.295 455.936 329.397H456.436C456.91 329.397 457.372 329.308 457.756 329.154C458.167 329 458.487 328.795 458.756 328.59C459.397 328.103 459.884 327.436 460.192 326.692L478.795 276.628C478.974 276.154 479.077 275.667 479.077 275.18C479.077 273.641 478.167 272.18 476.679 271.551H476.641ZM391.064 300.244C391.064 294.346 388.795 289 385.192 285.128C381.564 281.256 376.654 278.897 371.32 278.897C365.987 278.897 361.064 281.256 357.449 285.128C353.833 288.987 351.564 294.333 351.564 300.244C351.564 306.154 353.833 311.436 357.449 315.269C361.064 319.115 365.987 321.449 371.32 321.449C376.654 321.449 381.577 319.115 385.192 315.269C388.795 311.436 391.064 306.141 391.064 300.244ZM390.961 279.756C395.974 285.064 399.013 292.346 399.025 300.244C399.025 308.141 395.974 315.423 390.961 320.731C385.987 326.039 379.051 329.385 371.333 329.385C363.615 329.385 356.731 326.039 351.743 320.731C346.743 315.423 343.654 308.141 343.654 300.244C343.654 292.346 346.743 285.064 351.743 279.756C356.731 274.462 363.679 271.103 371.333 271.103C378.987 271.103 385.987 274.449 390.961 279.756ZM312.128 271.205C305.923 271.205 300.256 273.628 296.026 277.487V275.18C296.026 274.115 295.628 273.128 294.936 272.397C294.269 271.68 293.269 271.205 292.179 271.205C291.09 271.205 290.038 271.654 289.32 272.397C288.628 273.115 288.205 274.115 288.205 275.18V326.615L288.372 326.782V326.808C288.423 326.974 288.526 327.167 288.641 327.346C289.179 328.295 290.064 329.026 291.167 329.346L291.32 329.397H292.179C292.743 329.397 293.32 329.282 293.872 329.026C294.32 328.808 294.756 328.462 295.09 328.013C295.09 328.013 295.141 327.923 295.192 327.885C295.205 327.885 295.231 327.859 295.243 327.846C295.461 327.577 295.628 327.295 295.743 327.039C295.859 326.731 295.936 326.436 295.987 326.218L296.026 326.077V295.192C296.141 290.769 297.961 286.782 300.872 283.872C303.769 280.974 307.743 279.18 312.128 279.18C316.513 279.18 320.577 280.974 323.461 283.872C326.359 286.769 328.115 290.756 328.115 295.141V325.474C328.115 326.59 328.59 327.603 329.308 328.308C330.038 329.013 331.038 329.423 332.09 329.423C333.141 329.423 334.141 329.013 334.872 328.308C335.615 327.603 336.064 326.577 336.064 325.474V295.141C336.064 282.051 325.372 271.256 312.141 271.244L312.128 271.205ZM702.859 294.615C700.602 285.474 692.577 278.949 683.41 278.974C674.013 278.974 666.09 285.346 663.641 294.615H702.859ZM711.538 298.372V298.769C711.538 299.872 711.051 300.859 710.308 301.5C709.564 302.154 708.602 302.5 707.564 302.5H663.077C664.205 313.359 672.872 321.372 683.218 321.449H685.846C689.269 321.449 692.602 320.282 695.538 318.321C698.474 316.385 701.013 313.667 702.808 310.692C703.179 310.051 703.705 309.577 704.282 309.269C704.872 308.949 705.5 308.808 706.141 308.808C706.846 308.808 707.538 308.987 708.154 309.359H708.192L708.243 309.41C709.359 310.231 710.051 311.474 710.051 312.846C710.051 313.539 709.872 314.256 709.487 314.897V314.923H709.461C706.974 318.872 703.59 322.487 699.564 325.09C695.538 327.705 690.859 329.372 685.846 329.372H683.179C675.372 329.321 668.32 326.026 663.231 320.744C658.154 315.487 655.026 308.269 655.026 300.333C655.026 292.397 658.179 284.949 663.295 279.641C668.41 274.346 675.525 271.077 683.397 271.077C691.269 271.077 697.666 274.064 702.666 278.962C707.666 283.846 710.936 290.641 711.513 298.295V298.346H711.525L711.538 298.372ZM529.077 247.167C527.987 247.167 527 247.615 526.282 248.333C525.564 249.039 525.115 250.039 525.115 251.128V325.436C525.115 326.526 525.564 327.513 526.282 328.218C527 328.923 527.987 329.385 529.077 329.385C531.32 329.385 533.141 327.615 533.154 325.436V251.128C533.154 248.936 531.32 247.167 529.077 247.167ZM269.872 298.833C266.667 297.321 263.038 296.205 259.423 295.013C256.09 293.885 252.705 292.923 250.295 291.667C249.077 291.013 248.141 290.333 247.526 289.564C246.897 288.795 246.602 288.013 246.577 286.949C246.577 285.487 247.013 284.308 247.718 283.269C248.808 281.718 250.615 280.5 252.615 279.718C254.577 278.936 256.705 278.564 258.231 278.564C262.731 278.564 265.577 280.064 267.756 281.615C268.833 282.397 269.743 283.192 270.602 283.846C271.051 284.192 271.461 284.5 271.936 284.731C272.384 284.962 272.923 285.141 273.5 285.141C273.872 285.141 274.243 285.077 274.577 284.923C274.936 284.782 275.243 284.577 275.538 284.321C275.833 284.051 276.077 283.718 276.256 283.359C276.41 282.987 276.487 282.59 276.487 282.218C276.487 281.513 276.256 280.859 275.936 280.231C275.333 279.141 274.41 278.103 273.243 277.051C271.5 275.5 269.192 274.026 266.718 272.91C264.231 271.795 261.564 271.039 259.026 271.039C253.141 271.039 248.218 272.372 244.654 274.833C242.795 276.115 241.154 277.526 240 279.462C238.82 281.41 238.167 283.808 238.09 286.923C238.09 287.064 238.09 287.205 238.09 287.346C238.09 290.372 239.051 292.872 240.59 294.833C242.923 297.782 246.372 299.539 249.756 300.795C253.141 302.039 256.526 302.795 258.654 303.5C261.654 304.5 264.859 305.59 267.179 307.026C268.333 307.756 269.282 308.551 269.91 309.41C270.526 310.308 270.884 311.218 270.897 312.385V312.474C270.897 314.154 270.397 315.487 269.577 316.615C268.346 318.295 266.282 319.539 264.102 320.321C261.923 321.09 259.667 321.41 258.205 321.41C253.077 321.41 249.641 320.167 247.141 318.936C245.897 318.308 244.884 317.692 243.961 317.167C243.513 316.923 243.077 316.692 242.628 316.5C242.192 316.321 241.731 316.205 241.192 316.205C240.872 316.205 240.526 316.256 240.192 316.385C239.872 316.526 239.564 316.718 239.32 316.949C238.974 317.282 238.667 317.654 238.461 318.09C238.256 318.526 238.154 318.974 238.154 319.449C238.154 320.231 238.449 320.936 238.859 321.577C239.513 322.5 240.461 323.333 241.641 324.167C242.859 324.987 244.32 325.795 246.013 326.59C249.743 328.359 254.538 329.269 258.167 329.333C263.82 329.333 268.705 328.026 272.82 325C276.846 321.974 279.346 317.462 279.346 312.385C279.346 309.59 278.692 307.218 277.551 305.282C275.82 302.346 273.013 300.397 269.833 298.872L269.872 298.833ZM588.859 300.244C588.859 294.282 586.615 288.949 583.013 285.09C579.423 281.244 574.5 278.91 569.102 278.897C563.756 278.897 558.846 281.244 555.218 285.09C551.615 288.949 549.346 294.282 549.346 300.244C549.346 306.205 551.628 311.5 555.218 315.321C558.82 319.141 563.756 321.449 569.102 321.449C574.449 321.449 579.436 319.141 583.026 315.333C586.602 311.5 588.859 306.205 588.859 300.244ZM595.59 272.205C596.32 272.91 596.782 273.936 596.782 275.051V325.436C596.782 326.526 596.32 327.513 595.615 328.218C594.897 328.923 593.91 329.385 592.82 329.385C591.731 329.385 590.731 328.923 590.025 328.218C589.308 327.513 588.846 326.526 588.846 325.436V320.526C583.859 325.91 576.846 329.397 569.102 329.397C561.359 329.397 554.436 326.077 549.461 320.769C544.474 315.487 541.41 308.205 541.41 300.256C541.41 292.308 544.461 285.013 549.461 279.731C554.436 274.423 561.384 271.115 569.102 271.115C576.82 271.115 583.859 274.487 588.846 279.859V275.064C588.846 273.962 589.295 272.936 590.038 272.218C590.769 271.526 591.756 271.115 592.82 271.115C593.884 271.115 594.872 271.526 595.59 272.218V272.205ZM651.564 277.321C652.346 276.539 652.782 275.5 652.782 274.474C652.782 273.449 652.346 272.449 651.564 271.718L651.538 271.692C651.538 271.68 651.525 271.667 651.525 271.667C650.756 270.91 649.782 270.5 648.769 270.5C647.756 270.5 646.743 270.923 645.987 271.692L615 301.897V251.128C615 248.936 613.167 247.167 610.923 247.167C609.833 247.167 608.846 247.615 608.141 248.333C607.436 249.039 606.961 250.039 606.961 251.128V325.436C606.961 326.526 607.436 327.513 608.141 328.218C608.846 328.923 609.846 329.385 610.923 329.385C613.167 329.385 615 327.615 615 325.436V313.18L625.09 303.103L645.667 327.923C646.051 328.487 646.577 328.885 647.102 329.09C647.692 329.321 648.269 329.397 648.782 329.397C649.487 329.397 650.487 329.244 651.372 328.551L651.423 328.526L651.474 328.474C652.295 327.667 652.769 326.577 652.769 325.474C652.769 324.551 652.423 323.603 651.782 322.846L630.846 297.372L651.577 277.321H651.59H651.564ZM512.731 247.333H511.846C511.731 247.333 511.615 247.333 511.5 247.346C511.384 247.346 511.269 247.333 511.154 247.333C508.872 247.333 506.654 247.59 504.577 248.282C502.538 248.962 500.654 250.077 499.192 251.782C497.679 253.462 496.692 255.474 496.077 257.756C495.474 260.051 495.218 262.628 495.192 265.564V271.244H488.936C486.756 271.244 485.038 273 485.038 275.103C485.038 276.231 485.474 277.282 486.179 278.026C486.897 278.769 487.884 279.244 488.987 279.308H495.205V325.628C495.205 326.718 495.654 327.718 496.384 328.423C497.115 329.128 498.128 329.539 499.243 329.539C501.346 329.539 503.09 327.808 503.09 325.615V279.295H509.82C510.91 279.231 511.91 278.782 512.628 278.051C513.359 277.321 513.808 276.282 513.808 275.167V275.013C513.782 272.936 512.038 271.231 509.872 271.231H503.09V265.577C503.128 263.077 503.397 261.205 503.769 259.833C504.128 258.462 504.628 257.603 505.077 257.064C505.513 256.59 506.077 256.192 507.013 255.885C507.949 255.577 509.243 255.385 510.987 255.385H511.192C511.295 255.385 511.397 255.372 511.5 255.372C511.628 255.372 511.731 255.385 511.859 255.385H512.743C514.974 255.385 516.782 253.577 516.782 251.346C516.782 249.115 514.987 247.308 512.743 247.308L512.731 247.333ZM113.513 302.872C113.833 301.859 113.961 300.821 113.949 299.782C113.91 299.039 113.82 298.295 113.602 297.551C112.961 295.231 111.461 293.167 109.192 291.859L77.0255 273.282C72.4871 270.667 66.6922 272.218 64.0896 276.756C61.4614 281.282 63.0127 287.064 67.5512 289.68L85.5255 300.077L67.5512 310.436C63.0127 313.064 61.4614 318.846 64.0896 323.385C66.6922 327.91 72.4871 329.449 77.0255 326.833L109.192 308.256C111.359 307.013 112.833 305.051 113.513 302.846V302.872ZM122.243 320.269C120.397 320.115 118.474 320.5 116.743 321.5L84.564 340.064C80.0384 342.68 78.4871 348.5 81.1025 353.026C83.7307 357.551 89.5127 359.103 94.0255 356.474L112.051 346.077V366.859C112.051 372.09 116.282 376.333 121.526 376.333C126.769 376.333 130.987 372.09 130.987 366.859V329.705C130.987 324.718 127.115 320.615 122.218 320.269H122.243ZM155.205 279.897C157.051 280.051 158.961 279.654 160.692 278.667L192.872 260.09C197.41 257.474 198.949 251.68 196.333 247.141C193.718 242.615 187.936 241.064 183.41 243.68L165.397 254.09V233.295C165.397 228.077 161.154 223.833 155.923 223.833C150.692 223.833 146.449 228.077 146.449 233.295V270.449C146.449 275.436 150.308 279.539 155.218 279.897H155.205ZM84.564 260.077L116.743 278.654C118.474 279.654 120.397 280.039 122.243 279.885C127.141 279.526 131.013 275.423 131.013 270.436V233.282C131.013 228.064 126.769 223.821 121.551 223.821C116.333 223.821 112.077 228.064 112.077 233.282V254.077L94.0512 243.667C89.5255 241.051 83.7435 242.603 81.1281 247.128C78.5127 251.68 80.064 257.462 84.5896 260.077H84.564ZM145.051 300.013C145.051 299.474 144.731 298.718 144.346 298.321L140.474 294.462C140.09 294.077 139.346 293.769 138.795 293.769H138.641C138.102 293.769 137.346 294.09 136.974 294.462L133.102 298.321C132.718 298.718 132.423 299.474 132.423 300.013V300.167C132.423 300.705 132.718 301.449 133.102 301.833L136.974 305.705C137.359 306.09 138.102 306.397 138.641 306.397H138.795C139.333 306.397 140.09 306.077 140.474 305.705L144.346 301.833C144.731 301.449 145.051 300.705 145.051 300.167V300.013ZM155.743 303.718L142.372 317.077C141.987 317.474 141.256 317.795 140.692 317.795H136.756C136.218 317.795 135.461 317.474 135.077 317.077L121.705 303.718C121.32 303.346 121.013 302.59 121.013 302.051V298.115C121.013 297.564 121.32 296.808 121.705 296.436L135.077 283.077C135.461 282.68 136.218 282.372 136.756 282.372H140.692C141.243 282.372 141.987 282.68 142.372 283.077L155.743 296.436C156.128 296.821 156.436 297.577 156.436 298.115V302.051C156.436 302.59 156.128 303.346 155.743 303.718ZM192.872 340.064L160.692 321.5C158.961 320.5 157.051 320.103 155.205 320.269C150.295 320.615 146.436 324.718 146.436 329.705V366.859C146.436 372.09 150.667 376.333 155.91 376.333C161.154 376.333 165.385 372.09 165.385 366.859V346.077L183.397 356.474C187.923 359.103 193.718 357.551 196.32 353.026C198.923 348.487 197.385 342.68 192.859 340.064H192.872ZM209.884 289.692L191.91 300.09L209.884 310.449C214.423 313.077 215.974 318.859 213.346 323.397C210.731 327.923 204.936 329.462 200.41 326.846L168.231 308.269C166.09 307.026 164.59 305.064 163.936 302.859C163.615 301.846 163.474 300.808 163.513 299.769C163.526 299.026 163.641 298.282 163.846 297.539C164.487 295.218 166 293.154 168.231 291.846L200.41 273.269C204.936 270.654 210.731 272.205 213.346 276.744C215.974 281.269 214.423 287.051 209.884 289.667V289.692ZM731.808 271.154C731.808 276.359 728.32 280.718 722.5 280.718C716.679 280.718 713.269 276.333 713.269 271.154C713.269 265.974 716.718 261.59 722.5 261.59C728.282 261.59 731.808 265.936 731.808 271.154ZM729.961 271.154C729.961 266.718 727.013 263.359 722.5 263.359C717.987 263.359 715.115 266.564 715.115 271.154C715.115 275.744 718.064 278.949 722.5 278.949C726.936 278.949 729.961 275.59 729.961 271.154ZM718.846 266.846H722.82C725 266.846 726.436 268.039 726.436 269.885C726.436 271.039 725.859 271.897 725 272.423L726.564 274.68V275.128H724.308L722.795 272.949H721.026V275.128H718.846V266.846ZM722.782 268.859H721.013V271.039H722.782C723.602 271.039 724.141 270.667 724.141 269.974C724.141 269.231 723.654 268.872 722.782 268.872V268.859Z" fill="white"></path>
    </g>
  </mask>
  <g mask="url(#mask0_105_238)">
    <path d="M744.628 211H50V389.167H744.628V211Z" fill="#21B3E6"></path>
  </g>
</svg>
