<?xml version="1.0" encoding="UTF-8"?>
<svg id="Layer_1" data-name="Layer 1" xmlns="http://www.w3.org/2000/svg" viewBox="0 0 180 180">
  <defs>
    <style>
      .cls-1 {
        fill: #1e1c19;
      }

      .cls-2 {
        fill: #f1ece3;
      }
    </style>
  </defs>
  <rect class="cls-1" width="180" height="180"/>
  <g>
    <path class="cls-2" d="M135.75,155.28c-9.92,11.01-22.71,16.9-37.42,18.26-10.36.96-21.44.23-31.29-3.24-12.41-4.36-22.83-13.06-29.6-24.32-4.22-7.03-7.07-14.68-8.71-22.73-1.26-6.21-1.89-12.34-1.9-18.71l-.02-27.73c0-3.69.22-7.09.56-10.76.76-8.03,2.63-15.8,5.73-23.24,7.33-17.57,21.33-30.92,40.17-35.06,5.75-1.26,11.46-1.71,17.36-1.69,4.89.02,9.53.33,14.32,1.23,25.13,4.72,41.34,25.33,46.29,49.64,1.35,6.64,1.93,13.23,1.93,20.03v26.51c0,4.45-.34,8.62-.88,13.03-1.77,14.5-6.71,27.85-16.54,38.77ZM101.92,162.47c15.1-2.4,26.76-12.02,33.56-25.37,5.2-10.21,7.21-23.04,7.21-34.48v-24.59c0-6.49-.61-12.73-1.93-19.05-4.32-20.79-18.27-38.58-40.19-41.51-7.37-.98-14.78-.96-22.15.18-7.77,1.2-14.99,4.36-21.01,9.39-10.7,8.93-16.56,21.74-18.77,35.36-.89,5.47-1.33,10.78-1.33,16.33l-.02,22.48c0,5.89.43,11.54,1.42,17.32,1.94,11.37,6.29,21.97,14.2,30.42,6.8,7.26,15.64,11.97,25.5,13.52,7.76,1.22,15.61,1.25,23.51,0Z"/>
    <path class="cls-2" d="M120.56,95.75c.56,6.49.43,13.81-1.79,19.9-2.3,6.32-7.21,11.22-13.54,13.5-2.64.95-5.24,1.54-8.05,1.82-4.19.42-8.3.44-12.51.1-6.5-.54-13.44-2.66-16.77-8.5-1.43-2.51-2.25-5.37-2.25-8.38l-.04-65.47c0-1.46,1.08-2.71,2.55-2.71l8.44-.02c1.48,0,2.69,1.17,2.69,2.73v22.87c3.52-.52,7.02-.68,10.65-.67,3.13,0,6.08.04,9.15.43,12.96,1.72,20.39,11.78,21.47,24.43ZM106.48,112.48c2.15-4.5,2.2-10.61,1.71-15.65-.83-8.63-5.55-13.35-14.21-14.04-4.02-.32-7.92-.28-11.92.15-1.2.13-2.74,1.06-2.74,2.39v26.94c.01,1.92.81,3.75,2.07,5.02,1.3,1.32,3.03,1.95,4.87,2.18,3.5.44,6.97.31,10.45-.25,4.22-.68,7.91-2.86,9.77-6.75Z"/>
  </g>
</svg>